<?xml version="1.0" encoding="utf-8"?>
<!-- Generator: Adobe Illustrator 25.2.2, SVG Export Plug-In . SVG Version: 6.00 Build 0)  -->
<svg version="1.1" id="Layer_1" xmlns="http://www.w3.org/2000/svg" xmlns:xlink="http://www.w3.org/1999/xlink" x="0px" y="0px"
	 viewBox="0 0 566.9 572.1" style="enable-background:new 0 0 566.9 572.1;" xml:space="preserve">
<style type="text/css">
	.st0{fill:#94B8DB;}
	.st1{fill:#FFFFFF;}
	.st2{fill:none;stroke:#336699;stroke-width:30;stroke-linecap:round;stroke-miterlimit:10;}
</style>
<g id="Layer_2_1_">
	<g>
		<polygon class="st0" points="450.5,380.1 408.5,296.1 283.5,296.1 283.5,380.1 283.5,546 533.5,546 		"/>
		<polygon class="st1" points="283.5,46 408.5,296.1 283.5,296.1 		"/>
		<polygon class="st0" points="283.5,380.1 283.5,546 33.5,546 116.5,380.1 		"/>
		<polygon class="st1" points="283.5,296.1 283.5,380.1 116.5,380.1 158.5,296.1 		"/>
		<polygon class="st1" points="283.5,46 283.5,296.1 158.5,296.1 		"/>
	</g>
</g>
<g id="Layer_5">
	<polygon class="st1" points="158.5,294.1 116.5,378.1 283.5,378.1 283.5,294.1 283.5,44 	"/>
	<polygon class="st1" points="283.5,44 283.5,294.1 283.5,378.1 408.5,294.1 	"/>
</g>
<g id="Layer_3">
	<line class="st2" x1="283.5" y1="52.5" x2="283.5" y2="543.8"/>
	<line class="st2" x1="283.5" y1="380.1" x2="408.5" y2="296.1"/>
	<polyline class="st2" points="34.5,544 283.5,46 408.5,296.1 	"/>
	<line class="st2" x1="116.5" y1="380.1" x2="283.5" y2="380.1"/>
</g>
</svg>
